<svg width="242" height="30" viewBox="0 0 242 30" fill="none" xmlns="http://www.w3.org/2000/svg">
<path d="M91.79 0H110.99V5.4H97.4471V12.2571H110.733V17.6571H97.4471V30H91.79V0Z" fill="#012D5E"/>
<path d="M134.917 0H153.86V5.4H140.574V12.2571H153.346V17.6571H140.574V24.6H154.374V30H134.917V0Z" fill="#012D5E"/>
<path d="M191.973 27.1714H192.745V0H198.402V30H187.345L183.83 2.82857H183.059V30H177.402V0H188.459L191.973 27.1714Z" fill="#012D5E"/>
<path d="M220.143 0H231.029C234.743 0 237.501 0.871428 239.301 2.61428C241.101 4.32857 242.001 7 242.001 10.6286V19.3714C242.001 23 241.101 25.6857 239.301 27.4286C237.501 29.1429 234.743 30 231.029 30H220.143V24.5571H222.972V5.4H220.143V0ZM231.029 24.6C233.001 24.6 234.372 24.1429 235.143 23.2286C235.943 22.2857 236.343 20.8286 236.343 18.8571V10.6286C236.343 8.91429 235.943 7.61429 235.143 6.72857C234.372 5.84286 233.001 5.4 231.029 5.4H228.629V24.6H231.029Z" fill="#012D5E"/>
<path d="M0 0H18.9429V5.4H5.65714V12.2571H18.4286V17.6571H5.65714V24.6H19.4571V30H0V0Z" fill="#01AEF0"/>
<path d="M40.8131 0H50.7559L52.4702 22.5429V26.9143H53.4988V22.5429L55.2131 0H65.1559V30H60.0131V9.94286L60.5273 3.08572H59.4988L57.2702 30H48.7845L46.4702 3.08572H45.4416L45.9559 9.94286V30H40.8131V0Z" fill="#01AEF0"/>
</svg>
