<?xml version="1.0" encoding="UTF-8" standalone="no"?>
<svg
   xmlns:dc="http://purl.org/dc/elements/1.1/"
   xmlns:cc="http://creativecommons.org/ns#"
   xmlns:rdf="http://www.w3.org/1999/02/22-rdf-syntax-ns#"
   xmlns:svg="http://www.w3.org/2000/svg"
   xmlns="http://www.w3.org/2000/svg"
   xmlns:sodipodi="http://sodipodi.sourceforge.net/DTD/sodipodi-0.dtd"
   xmlns:inkscape="http://www.inkscape.org/namespaces/inkscape"
   width="150"
   height="32"
   viewBox="0 0 150 32"
   version="1.1"
   id="svg3729"
   sodipodi:docname="semem-logo-transparent.svg"
   inkscape:version="0.92.4 (5da689c313, 2019-01-14)"
   style="fill:none">
  <metadata
     id="metadata3735">
    <rdf:RDF>
      <cc:Work
         rdf:about="">
        <dc:format>image/svg+xml</dc:format>
        <dc:type
           rdf:resource="http://purl.org/dc/dcmitype/StillImage" />
        <dc:title></dc:title>
      </cc:Work>
    </rdf:RDF>
  </metadata>
  <defs
     id="defs3733" />
  <sodipodi:namedview
     pagecolor="#ffffff"
     bordercolor="#666666"
     borderopacity="1"
     objecttolerance="10"
     gridtolerance="10"
     guidetolerance="10"
     inkscape:pageopacity="0"
     inkscape:pageshadow="2"
     inkscape:window-width="1920"
     inkscape:window-height="1137"
     id="namedview3731"
     showgrid="false"
     inkscape:zoom="3.53"
     inkscape:cx="109.51293"
     inkscape:cy="14.575614"
     inkscape:window-x="1912"
     inkscape:window-y="-8"
     inkscape:window-maximized="1"
     inkscape:current-layer="svg3729" />
  <path
     inkscape:connector-curvature="0"
     d="m 18.492386,11.743265 v -0.958966 q 0,-1.6781907 -1.298599,-2.916855 A 4.2434237,4.2434237 0 0 0 15.397728,6.866124 Q 14.569022,6.6287806 13.537733,6.6287806 a 7.8922884,7.8922884 0 0 0 -1.247456,0.0927 Q 11.150706,6.9040825 10.381136,7.4478964 9.222387,8.267013 9.222387,9.6655053 a 3.1865635,3.1865635 0 0 0 0.093499,0.7851527 2.7074802,2.7074802 0 0 0 0.1861926,0.513446 2.2040231,2.2040231 0 0 0 0.3999754,0.565791 q 0.195389,0.20378 0.455507,0.38878 a 4.0444383,4.0444383 0 0 0 0.123468,0.08431 5.3857918,5.3857918 0 0 0 0.626924,0.350422 q 0.328846,0.157829 0.719625,0.301674 a 11.205915,11.205915 0 0 0 0.49147,0.16702 16.398316,16.398316 0 0 0 0.919807,0.258922 q 0.432336,0.109081 0.926596,0.214169 a 36.081488,36.081488 0 0 0 1.050466,0.206177 22.649174,22.649174 0 0 1 2.660737,0.640508 q 2.494905,0.774765 4.052029,2.036605 a 6.0438821,6.0438821 0 0 1 2.102534,3.481045 9.4118504,9.4118504 0 0 1 0.214964,2.072965 v 0.479483 a 9.4482109,9.4482109 0 0 1 -0.221357,2.082554 7.8319534,7.8319534 0 0 1 -0.477885,1.453632 q -0.699249,1.578296 -2.017827,2.697095 a 8.6390835,8.6390835 0 0 1 -2.077359,1.293006 10.730428,10.730428 0 0 1 -1.119195,0.425136 q -1.87797,0.599356 -4.235433,0.599356 A 16.554148,16.554148 0 0 1 11.666949,30.592932 12.018638,12.018638 0 0 1 9.2423656,29.983594 10.705655,10.705655 0 0 1 7.1570136,28.952305 8.7957148,8.7957148 0 0 1 5.7461325,27.825917 Q 4.3476413,26.447403 3.6284203,24.589407 2.909192,22.731411 2.909192,20.533781 v -1.198707 h 5.2743102 v 0.958966 a 7.0344139,7.0344139 0 0 0 0.2009893,1.728136 4.9570541,4.9570541 0 0 0 1.2574376,2.287533 q 1.4584269,1.498384 4.5351109,1.498384 2.397419,0 3.556168,-1.038879 1.15875,-1.038881 1.15875,-2.477329 0,-0.679267 -0.239744,-1.2986 A 2.5356655,2.5356655 0 0 0 18.182719,20.23211 3.3316071,3.3316071 0 0 0 17.813123,19.874496 q -0.4659,-0.387982 -1.197114,-0.716028 a 8.810099,8.810099 0 0 0 -0.441121,-0.183003 10.027586,10.027586 0 0 0 -0.857874,-0.282894 q -0.4635,-0.131459 -1.003721,-0.246535 a 21.617887,21.617887 0 0 0 -0.77556,-0.149839 Q 11.420014,17.936586 9.6619077,17.357211 A 11.844027,11.844027 0 0 1 7.8294885,16.585243 9.6475959,9.6475959 0 0 1 6.605211,15.818869 Q 5.3066118,14.859904 4.5873835,13.421454 3.9356879,12.11806 3.874556,10.289233 A 11.497601,11.497601 0 0 1 3.868073,9.9052465 V 9.6655053 A 7.3792417,7.3792417 0 0 1 4.3119903,7.0922802 6.9800725,6.9800725 0 0 1 4.5673154,6.4889314 Q 5.2665642,5.0305026 6.5252062,3.951667 7.7838482,2.8728305 9.5619253,2.2734764 a 11.301012,11.301012 0 0 1 2.3227007,-0.5078524 14.452814,14.452814 0 0 1 1.653017,-0.091501 14.956271,14.956271 0 0 1 2.268748,0.1642226 11.123205,11.123205 0 0 1 2.126513,0.5350226 10.529844,10.529844 0 0 1 1.863187,0.8838471 8.4612751,8.4612751 0 0 1 1.353338,1.014107 q 1.2986,1.1987062 1.957892,2.7570261 0.659284,1.5583199 0.659284,3.2764676 v 1.438449 z"
     id="0"
     style="vector-effect:non-scaling-stroke;fill:#01aef0;fill-opacity:1;stroke:#000000;stroke-width:0.09989227mm" />
  <path
     inkscape:connector-curvature="0"
     d="M 37.200841,30.203354 V 2.2335193 h 17.66095 V 7.26809 h -12.38664 v 6.393106 h 11.907162 v 5.03457 H 42.475151 v 6.47302 h 12.866125 v 5.034568 z"
     id="1"
     style="vector-effect:non-scaling-stroke;fill:#01aef0;fill-opacity:1;stroke:#000000;stroke-width:0.09989227mm" />
  <path
     inkscape:connector-curvature="0"
     d="M 67.257051,30.203354 V 2.2335193 h 9.270007 l 1.598278,21.0173357 v 4.075602 h 0.958963 V 23.250855 L 80.682577,2.2335193 h 9.270002 V 30.203354 H 85.157754 V 11.503524 L 85.637231,5.1104169 H 84.678268 L 82.600504,30.203354 H 74.689038 L 72.531369,5.1104169 h -0.958971 l 0.479485,6.3931071 v 18.69983 z"
     id="2"
     style="vector-effect:non-scaling-stroke;fill:#ffffff;fill-opacity:1;stroke:none;stroke-width:0.09989227mm" />
  <path
     inkscape:connector-curvature="0"
     d="m 120.92781,21.932276 h -14.54432 a 3.932559,3.932559 0 0 0 0.30926,1.384107 3.7483576,3.7483576 0 0 0 0.11028,0.234148 q 0.37959,0.739203 1.03889,1.278621 0.65928,0.539418 1.51835,0.839096 a 5.4780923,5.4780923 0 0 0 1.81046,0.299674 6.051474,6.051474 0 0 0 0.007,0 8.6087164,8.6087164 0 0 0 1.06285,-0.06111 q 0.52463,-0.06552 0.95617,-0.200983 a 3.3967368,3.3967368 0 0 0 0.85787,-0.397172 4.5834571,4.5834571 0 0 0 0.80793,-0.668878 3.5389835,3.5389835 0 0 0 0.63052,-0.90942 l 4.31536,2.397414 q -0.35403,0.747595 -0.97895,1.552727 a 11.696187,11.696187 0 0 1 -0.02,0.02558 6.3367663,6.3367663 0 0 1 -0.89303,0.923403 8.1715874,8.1715874 0 0 1 -0.76518,0.574981 q -1.0189,0.679271 -2.47733,1.118792 -1.31298,0.395975 -3.03113,0.435131 a 16.789893,16.789893 0 0 1 -0.38518,0.0043 12.07298,12.07298 0 0 1 -2.45376,-0.240138 10.023591,10.023591 0 0 1 -1.62185,-0.479083 q -1.83801,-0.719234 -3.17657,-2.077769 a 9.1073781,9.1073781 0 0 1 -1.77968,-2.603194 10.839511,10.839511 0 0 1 -0.29807,-0.71323 11.270645,11.270645 0 0 1 -0.61734,-2.508096 14.66978,14.66978 0 0 1 -0.12187,-1.927121 v -0.239742 a 11.567526,11.567526 0 0 1 0.27451,-2.563635 9.8006303,9.8006303 0 0 1 0.50465,-1.591883 q 0.77916,-1.877975 2.1377,-3.196553 1.35853,-1.318577 3.17657,-2.057781 a 10.21019,10.21019 0 0 1 3.76634,-0.7384039 11.611478,11.611478 0 0 1 0.12946,-7.926e-4 12.196048,12.196048 0 0 1 2.06496,0.1662213 q 1.19193,0.2045792 2.18165,0.6620862 a 7.508303,7.508303 0 0 1 0.14865,0.07073 10.207392,10.207392 0 0 1 1.9571,1.236667 8.6514699,8.6514699 0 0 1 1.07962,1.040878 q 1.19871,1.378512 1.75811,3.036724 a 10.750007,10.750007 0 0 1 0.47909,2.021421 9.072616,9.072616 0 0 1 0.0803,1.19511 z M 106.4634,17.61693 h 9.34992 a 3.4626657,3.4626657 0 0 0 -1.19951,-2.080157 4.6162217,4.6162217 0 0 0 -0.29888,-0.237344 4.6381981,4.6381981 0 0 0 -1.77888,-0.778759 6.6096719,6.6096719 0 0 0 -1.39769,-0.14025 6.1469709,6.1469709 0 0 0 -1.33736,0.137852 q -0.99773,0.22216 -1.73213,0.803533 a 3.9437469,3.9437469 0 0 0 -0.0471,0.03756 5.2275624,5.2275624 0 0 0 -0.90782,0.940186 4.0544276,4.0544276 0 0 0 -0.6505,1.317379 z"
     id="3"
     style="vector-effect:non-scaling-stroke;fill:#ffffff;fill-opacity:1;stroke:none;stroke-width:0.09989227mm" />
  <path
     inkscape:connector-curvature="0"
     d="M 124.16432,30.203354 V 2.2335193 h 9.27 l 1.59827,21.0173357 v 4.075602 h 0.95897 v -4.075602 l 1.59828,-21.0173357 h 9.27 V 30.203354 h -4.79483 v -18.69983 l 0.47948,-6.3931071 h -0.95896 L 139.50777,30.203354 H 131.5963 L 129.43863,5.1104169 h -0.95896 l 0.47948,6.3931071 v 18.69983 z"
     id="4"
     style="vector-effect:non-scaling-stroke;fill:#ffffff;fill-opacity:1;stroke:none;stroke-width:0.09989227mm" />
</svg>
