<?xml version="1.0" encoding="UTF-8" standalone="no"?>
<svg
   xmlns:dc="http://purl.org/dc/elements/1.1/"
   xmlns:cc="http://creativecommons.org/ns#"
   xmlns:rdf="http://www.w3.org/1999/02/22-rdf-syntax-ns#"
   xmlns:svg="http://www.w3.org/2000/svg"
   xmlns="http://www.w3.org/2000/svg"
   xmlns:sodipodi="http://sodipodi.sourceforge.net/DTD/sodipodi-0.dtd"
   xmlns:inkscape="http://www.inkscape.org/namespaces/inkscape"
   width="256.20001"
   height="72.801003"
   viewBox="0 0 256.2 72.801"
   version="1.1"
   id="svg8"
   sodipodi:docname="semm.svg"
   inkscape:version="0.92.4 (5da689c313, 2019-01-14)">
  <metadata
     id="metadata10">
    <rdf:RDF>
      <cc:Work
         rdf:about="">
        <dc:format>image/svg+xml</dc:format>
        <dc:type
           rdf:resource="http://purl.org/dc/dcmitype/StillImage" />
        <dc:title></dc:title>
      </cc:Work>
    </rdf:RDF>
  </metadata>
  <defs
     id="defs12" />
  <sodipodi:namedview
     id="namedview10"
     pagecolor="#ffffff"
     bordercolor="#666666"
     borderopacity="1.0"
     inkscape:pageshadow="2"
     inkscape:pageopacity="0.0"
     inkscape:pagecheckerboard="0"
     showgrid="false"
     inkscape:zoom="2.7629454"
     inkscape:cx="178.49566"
     inkscape:cy="-22.258855"
     inkscape:window-width="1920"
     inkscape:window-height="1137"
     inkscape:window-x="3832"
     inkscape:window-y="107"
     inkscape:window-maximized="1"
     inkscape:current-layer="svg8" />
  <g
     id="svgGroup"
     font-size="9pt"
     style="font-size:12px;fill:none;fill-rule:evenodd;stroke:#000000;stroke-width:0.25000001mm;stroke-linecap:round">
    <path
       d="m 39,25.2 v -2.4 q 0,-4.2 -3.25,-7.3 A 10.62,10.62 0 0 0 31.255,12.994 Q 29.181,12.4 26.6,12.4 a 19.752,19.752 0 0 0 -3.122,0.232 Q 20.626,13.089 18.7,14.45 15.8,16.5 15.8,20 a 7.975,7.975 0 0 0 0.234,1.965 6.776,6.776 0 0 0 0.466,1.285 5.516,5.516 0 0 0 1.001,1.416 q 0.489,0.51 1.14,0.973 a 10.122,10.122 0 0 0 0.309,0.211 13.479,13.479 0 0 0 1.569,0.877 q 0.823,0.395 1.801,0.755 a 28.045,28.045 0 0 0 1.23,0.418 41.04,41.04 0 0 0 2.302,0.648 q 1.082,0.273 2.319,0.536 A 90.301,90.301 0 0 0 30.8,29.6 56.684,56.684 0 0 1 37.459,31.203 Q 43.703,33.142 47.6,36.3 a 15.126,15.126 0 0 1 5.262,8.712 23.555,23.555 0 0 1 0.538,5.188 v 1.2 A 23.646,23.646 0 0 1 52.846,56.612 19.601,19.601 0 0 1 51.65,60.25 Q 49.9,64.2 46.6,67 A 21.621,21.621 0 0 1 41.401,70.236 26.855,26.855 0 0 1 38.6,71.3 Q 33.9,72.8 28,72.8 A 41.43,41.43 0 0 1 21.918,72.375 30.079,30.079 0 0 1 15.85,70.85 26.793,26.793 0 0 1 10.631,68.269 22.013,22.013 0 0 1 7.1,65.45 Q 3.6,62 1.8,57.35 0,52.7 0,47.2 v -3 h 13.2 v 2.4 a 17.605,17.605 0 0 0 0.503,4.325 12.406,12.406 0 0 0 3.147,5.725 q 3.65,3.75 11.35,3.75 6,0 8.9,-2.6 2.9,-2.6 2.9,-6.2 0,-1.7 -0.6,-3.25 A 6.346,6.346 0 0 0 38.225,46.445 8.338,8.338 0 0 0 37.3,45.55 Q 36.134,44.579 34.304,43.758 A 22.049,22.049 0 0 0 33.2,43.3 25.096,25.096 0 0 0 31.053,42.592 q -1.16,-0.329 -2.512,-0.617 A 54.103,54.103 0 0 0 26.6,41.6 Q 21.3,40.7 16.9,39.25 A 29.642,29.642 0 0 1 12.314,37.318 24.145,24.145 0 0 1 9.25,35.4 Q 6,33 4.2,29.4 2.569,26.138 2.416,21.561 A 28.775,28.775 0 0 1 2.4,20.6 V 20 A 18.468,18.468 0 0 1 3.511,13.56 17.469,17.469 0 0 1 4.15,12.05 Q 5.9,8.4 9.05,5.7 12.2,3 16.65,1.5 A 28.283,28.283 0 0 1 22.463,0.229 36.171,36.171 0 0 1 26.6,0 37.431,37.431 0 0 1 32.278,0.411 27.838,27.838 0 0 1 37.6,1.75 26.353,26.353 0 0 1 42.263,3.962 21.176,21.176 0 0 1 45.65,6.5 q 3.25,3 4.9,6.9 1.65,3.9 1.65,8.2 v 3.6 z"
       id="0"
       style="vector-effect:non-scaling-stroke;fill:#01aef0;fill-opacity:1"
       inkscape:connector-curvature="0" />
    <path
       d="M 65.8,71.4 V 1.4 H 110 V 14 H 79 v 16 h 29.8 V 42.6 H 79 v 16.2 h 32.2 v 12.6 z"
       id="1"
       style="vector-effect:non-scaling-stroke;fill:#01aef0;fill-opacity:1"
       inkscape:connector-curvature="0" />
    <path
       d="m 129,71.4 v -70 h 23.2 l 4,52.6 v 10.2 h 2.4 V 54 l 4,-52.6 h 23.2 v 70 h -12 V 24.6 l 1.2,-16 h -2.4 l -5.2,62.8 H 147.6 L 142.2,8.6 h -2.4 l 1.2,16 v 46.8 z"
       id="2"
       style="vector-effect:non-scaling-stroke;fill:#ffffff;fill-opacity:1;stroke:none"
       inkscape:connector-curvature="0" />
    <path
       d="m 199.4,71.4 v -70 h 23.2 l 4,52.6 V 64.2 H 229 V 54 l 4,-52.6 h 23.2 v 70 h -12 V 24.6 l 1.2,-16 H 243 l -5.2,62.8 H 218 L 212.6,8.6 h -2.4 l 1.2,16 v 46.8 z"
       id="4"
       style="vector-effect:non-scaling-stroke;fill:#ffffff;fill-opacity:1;stroke:none"
       inkscape:connector-curvature="0" />
  </g>
</svg>
