<?xml version="1.0" encoding="UTF-8" standalone="no"?>
<svg
   width="124"
   height="32"
   viewBox="0 0 124 32"
   version="1.1"
   id="svg3729"
   sodipodi:docname="semm-logo.svg"
   inkscape:version="1.1 (c68e22c387, 2021-05-23)"
   style="fill:none"
   xmlns:inkscape="http://www.inkscape.org/namespaces/inkscape"
   xmlns:sodipodi="http://sodipodi.sourceforge.net/DTD/sodipodi-0.dtd"
   xmlns="http://www.w3.org/2000/svg"
   xmlns:svg="http://www.w3.org/2000/svg"
   xmlns:rdf="http://www.w3.org/1999/02/22-rdf-syntax-ns#"
   xmlns:cc="http://creativecommons.org/ns#"
   xmlns:dc="http://purl.org/dc/elements/1.1/">
  <metadata
     id="metadata3735">
    <rdf:RDF>
      <cc:Work
         rdf:about="">
        <dc:format>image/svg+xml</dc:format>
        <dc:type
           rdf:resource="http://purl.org/dc/dcmitype/StillImage" />
      </cc:Work>
    </rdf:RDF>
  </metadata>
  <defs
     id="defs3733" />
  <sodipodi:namedview
     pagecolor="#ffffff"
     bordercolor="#666666"
     borderopacity="1"
     objecttolerance="10"
     gridtolerance="10"
     guidetolerance="10"
     inkscape:pageopacity="0"
     inkscape:pageshadow="2"
     inkscape:window-width="1920"
     inkscape:window-height="1177"
     id="namedview3731"
     showgrid="false"
     inkscape:zoom="4.9921739"
     inkscape:cx="41.064275"
     inkscape:cy="-18.328689"
     inkscape:window-x="3832"
     inkscape:window-y="-8"
     inkscape:window-maximized="1"
     inkscape:current-layer="svg3729"
     inkscape:pagecheckerboard="0" />
  <path
     inkscape:connector-curvature="0"
     d="m 17.290502,11.542951 v -0.958966 q 0,-1.6781902 -1.298599,-2.9168545 a 4.2434237,4.2434237 0 0 0 -1.796059,-1.00132 Q 13.367138,6.4284671 12.335849,6.4284671 a 7.8922884,7.8922884 0 0 0 -1.247456,0.0927 Q 9.9488225,6.703769 9.1792545,7.2475829 8.020506,8.0666995 8.020506,9.4651918 a 3.1865635,3.1865635 0 0 0 0.0935,0.7851522 2.7074802,2.7074802 0 0 0 0.186193,0.513446 2.2040231,2.2040231 0 0 0 0.399975,0.565791 q 0.195389,0.20378 0.4555065,0.38878 a 4.0444383,4.0444383 0 0 0 0.1234675,0.08431 5.3857918,5.3857918 0 0 0 0.6269225,0.350422 q 0.3288455,0.157829 0.7196245,0.301674 a 11.205915,11.205915 0 0 0 0.49147,0.16702 16.398316,16.398316 0 0 0 0.919807,0.258922 q 0.432336,0.109081 0.926596,0.214169 a 36.081488,36.081488 0 0 0 1.050466,0.206177 22.649174,22.649174 0 0 1 2.660737,0.640508 q 2.494905,0.774765 4.052029,2.036605 a 6.0438821,6.0438821 0 0 1 2.102534,3.481045 9.4118504,9.4118504 0 0 1 0.214964,2.072965 v 0.479483 a 9.4482109,9.4482109 0 0 1 -0.221358,2.082554 7.8319534,7.8319534 0 0 1 -0.477885,1.453632 q -0.699249,1.578296 -2.017827,2.697095 a 8.6390835,8.6390835 0 0 1 -2.077359,1.293006 10.730428,10.730428 0 0 1 -1.119195,0.425136 q -1.87797,0.599356 -4.235433,0.599356 A 16.554148,16.554148 0 0 1 10.465065,30.392618 12.018638,12.018638 0 0 1 8.040485,29.78328 10.705655,10.705655 0 0 1 5.955133,28.751991 8.7957148,8.7957148 0 0 1 4.544251,27.625603 Q 3.14576,26.247089 2.426539,24.389093 1.707311,22.531097 1.707311,20.333467 V 19.13476 h 5.27431 v 0.958966 a 7.0344139,7.0344139 0 0 0 0.200989,1.728136 4.9570541,4.9570541 0 0 0 1.257438,2.287533 q 1.4584245,1.498384 4.535108,1.498384 2.397419,0 3.556168,-1.038879 1.15875,-1.038881 1.15875,-2.477329 0,-0.679267 -0.239744,-1.2986 A 2.5356655,2.5356655 0 0 0 16.980835,20.031796 3.3316071,3.3316071 0 0 0 16.611239,19.674182 Q 16.145339,19.2862 15.414125,18.958154 A 8.810099,8.810099 0 0 0 14.973004,18.775151 10.027586,10.027586 0 0 0 14.11513,18.492257 q -0.4635,-0.131459 -1.003721,-0.246535 a 21.617887,21.617887 0 0 0 -0.77556,-0.149839 Q 10.21813,17.736272 8.460027,17.156897 A 11.844027,11.844027 0 0 1 6.627607,16.384929 9.6475959,9.6475959 0 0 1 5.40333,15.618555 Q 4.104731,14.65959 3.385502,13.22114 2.733807,11.917746 2.672675,10.088919 A 11.497601,11.497601 0 0 1 2.666175,9.704933 V 9.4651918 A 7.3792417,7.3792417 0 0 1 3.110092,6.8919667 6.9800725,6.9800725 0 0 1 3.365417,6.2886179 Q 4.064666,4.8301891 5.323308,3.7513535 6.58195,2.672517 8.360027,2.0731629 a 11.301012,11.301012 0 0 1 2.322698,-0.5078524 14.452814,14.452814 0 0 1 1.653017,-0.091501 14.956271,14.956271 0 0 1 2.268748,0.1642226 11.123205,11.123205 0 0 1 2.126513,0.5350226 10.529844,10.529844 0 0 1 1.863187,0.8838471 8.4612751,8.4612751 0 0 1 1.353338,1.014107 q 1.2986,1.1987062 1.957892,2.7570261 0.659284,1.5583199 0.659284,3.2764671 v 1.438449 z"
     id="0"
     style="vector-effect:non-scaling-stroke;fill:#01aef0;fill-opacity:1;stroke:#000000;stroke-width:0.0998923mm" />
  <path
     inkscape:connector-curvature="0"
     d="M 35.998957,30.00304 V 2.0332058 h 17.66095 v 5.0345707 h -12.38664 v 6.3931055 h 11.907162 v 5.03457 H 41.273267 v 6.47302 h 12.866125 v 5.034568 z"
     id="1"
     style="vector-effect:non-scaling-stroke;fill:#01aef0;fill-opacity:1;stroke:#000000;stroke-width:0.0998923mm" />
  <path
     inkscape:connector-curvature="0"
     d="M 98.962436,30.00304 V 2.0332058 h 9.270024 l 1.59827,21.0173352 v 4.075602 h 0.95897 v -4.075602 l 1.59828,-21.0173352 h 9.27 V 30.00304 h -4.79483 V 11.30321 l 0.47948,-6.3931066 h -0.95896 L 114.30591,30.00304 h -7.91147 L 104.23677,4.9101034 h -0.95896 l 0.47948,6.3931066 v 18.69983 z"
     id="4"
     style="vector-effect:non-scaling-stroke;fill:#0000ff;fill-opacity:1;stroke:none;stroke-width:0.0998923mm" />
  <path
     inkscape:connector-curvature="0"
     d="M 66.055167,30.00304 V 2.0332058 h 9.270007 l 1.598278,21.0173352 v 4.075602 h 0.958963 V 23.050541 L 79.480693,2.0332058 h 9.270002 V 30.00304 H 83.95587 V 11.30321 L 84.435347,4.9101034 H 83.476384 L 81.39862,30.00304 H 73.487154 L 71.329485,4.9101034 h -0.958971 l 0.479485,6.3931066 v 18.69983 z"
     id="2"
     style="vector-effect:non-scaling-stroke;fill:#0000ff;fill-opacity:1;stroke:none;stroke-width:0.0998923mm" />
</svg>
