<?xml version="1.0" encoding="UTF-8" standalone="no"?>
<svg
   xmlns:dc="http://purl.org/dc/elements/1.1/"
   xmlns:cc="http://creativecommons.org/ns#"
   xmlns:rdf="http://www.w3.org/1999/02/22-rdf-syntax-ns#"
   xmlns:svg="http://www.w3.org/2000/svg"
   xmlns="http://www.w3.org/2000/svg"
   xmlns:sodipodi="http://sodipodi.sourceforge.net/DTD/sodipodi-0.dtd"
   xmlns:inkscape="http://www.inkscape.org/namespaces/inkscape"
   width="124"
   height="32"
   viewBox="0 0 124 32"
   version="1.1"
   id="svg3729"
   sodipodi:docname="semm-logo-transparent.svg"
   inkscape:version="0.92.4 (5da689c313, 2019-01-14)"
   style="fill:none">
  <metadata
     id="metadata3735">
    <rdf:RDF>
      <cc:Work
         rdf:about="">
        <dc:format>image/svg+xml</dc:format>
        <dc:type
           rdf:resource="http://purl.org/dc/dcmitype/StillImage" />
        <dc:title></dc:title>
      </cc:Work>
    </rdf:RDF>
  </metadata>
  <defs
     id="defs3733" />
  <sodipodi:namedview
     pagecolor="#ffffff"
     bordercolor="#666666"
     borderopacity="1"
     objecttolerance="10"
     gridtolerance="10"
     guidetolerance="10"
     inkscape:pageopacity="0"
     inkscape:pageshadow="2"
     inkscape:window-width="1920"
     inkscape:window-height="1137"
     id="namedview3731"
     showgrid="false"
     inkscape:zoom="7.06"
     inkscape:cx="80.806003"
     inkscape:cy="3.0787802"
     inkscape:window-x="3832"
     inkscape:window-y="107"
     inkscape:window-maximized="1"
     inkscape:current-layer="svg3729" />
  <path
     inkscape:connector-curvature="0"
     d="m 18.492386,11.743265 v -0.958966 q 0,-1.6781907 -1.298599,-2.916855 A 4.2434237,4.2434237 0 0 0 15.397728,6.866124 Q 14.569022,6.6287806 13.537733,6.6287806 a 7.8922884,7.8922884 0 0 0 -1.247456,0.0927 Q 11.150706,6.9040825 10.381136,7.4478964 9.222387,8.267013 9.222387,9.6655053 a 3.1865635,3.1865635 0 0 0 0.093499,0.7851527 2.7074802,2.7074802 0 0 0 0.1861926,0.513446 2.2040231,2.2040231 0 0 0 0.3999754,0.565791 q 0.195389,0.20378 0.455507,0.38878 a 4.0444383,4.0444383 0 0 0 0.123468,0.08431 5.3857918,5.3857918 0 0 0 0.626924,0.350422 q 0.328846,0.157829 0.719625,0.301674 a 11.205915,11.205915 0 0 0 0.49147,0.16702 16.398316,16.398316 0 0 0 0.919807,0.258922 q 0.432336,0.109081 0.926596,0.214169 a 36.081488,36.081488 0 0 0 1.050466,0.206177 22.649174,22.649174 0 0 1 2.660737,0.640508 q 2.494905,0.774765 4.052029,2.036605 a 6.0438821,6.0438821 0 0 1 2.102534,3.481045 9.4118504,9.4118504 0 0 1 0.214964,2.072965 v 0.479483 a 9.4482109,9.4482109 0 0 1 -0.221357,2.082554 7.8319534,7.8319534 0 0 1 -0.477885,1.453632 q -0.699249,1.578296 -2.017827,2.697095 a 8.6390835,8.6390835 0 0 1 -2.077359,1.293006 10.730428,10.730428 0 0 1 -1.119195,0.425136 q -1.87797,0.599356 -4.235433,0.599356 A 16.554148,16.554148 0 0 1 11.666949,30.592932 12.018638,12.018638 0 0 1 9.2423656,29.983594 10.705655,10.705655 0 0 1 7.1570136,28.952305 8.7957148,8.7957148 0 0 1 5.7461325,27.825917 Q 4.3476413,26.447403 3.6284203,24.589407 2.909192,22.731411 2.909192,20.533781 v -1.198707 h 5.2743102 v 0.958966 a 7.0344139,7.0344139 0 0 0 0.2009893,1.728136 4.9570541,4.9570541 0 0 0 1.2574376,2.287533 q 1.4584269,1.498384 4.5351109,1.498384 2.397419,0 3.556168,-1.038879 1.15875,-1.038881 1.15875,-2.477329 0,-0.679267 -0.239744,-1.2986 A 2.5356655,2.5356655 0 0 0 18.182719,20.23211 3.3316071,3.3316071 0 0 0 17.813123,19.874496 q -0.4659,-0.387982 -1.197114,-0.716028 a 8.810099,8.810099 0 0 0 -0.441121,-0.183003 10.027586,10.027586 0 0 0 -0.857874,-0.282894 q -0.4635,-0.131459 -1.003721,-0.246535 a 21.617887,21.617887 0 0 0 -0.77556,-0.149839 Q 11.420014,17.936586 9.6619077,17.357211 A 11.844027,11.844027 0 0 1 7.8294885,16.585243 9.6475959,9.6475959 0 0 1 6.605211,15.818869 Q 5.3066118,14.859904 4.5873835,13.421454 3.9356879,12.11806 3.874556,10.289233 A 11.497601,11.497601 0 0 1 3.868073,9.9052465 V 9.6655053 A 7.3792417,7.3792417 0 0 1 4.3119903,7.0922802 6.9800725,6.9800725 0 0 1 4.5673154,6.4889314 Q 5.2665642,5.0305026 6.5252062,3.951667 7.7838482,2.8728305 9.5619253,2.2734764 a 11.301012,11.301012 0 0 1 2.3227007,-0.5078524 14.452814,14.452814 0 0 1 1.653017,-0.091501 14.956271,14.956271 0 0 1 2.268748,0.1642226 11.123205,11.123205 0 0 1 2.126513,0.5350226 10.529844,10.529844 0 0 1 1.863187,0.8838471 8.4612751,8.4612751 0 0 1 1.353338,1.014107 q 1.2986,1.1987062 1.957892,2.7570261 0.659284,1.5583199 0.659284,3.2764676 v 1.438449 z"
     id="0"
     style="vector-effect:non-scaling-stroke;fill:#01aef0;fill-opacity:1;stroke:#000000;stroke-width:0.09989227mm" />
  <path
     inkscape:connector-curvature="0"
     d="M 37.200841,30.203354 V 2.2335193 h 17.66095 V 7.26809 h -12.38664 v 6.393106 h 11.907162 v 5.03457 H 42.475151 v 6.47302 h 12.866125 v 5.034568 z"
     id="1"
     style="vector-effect:non-scaling-stroke;fill:#01aef0;fill-opacity:1;stroke:#000000;stroke-width:0.09989227mm" />
  <path
     inkscape:connector-curvature="0"
     d="M 100.16432,30.203354 V 2.2335193 h 9.27 l 1.59827,21.0173357 v 4.075602 h 0.95897 v -4.075602 l 1.59828,-21.0173357 h 9.27 V 30.203354 h -4.79483 v -18.69983 l 0.47948,-6.3931071 h -0.95896 L 115.50777,30.203354 H 107.5963 L 105.43863,5.1104169 h -0.95896 l 0.47948,6.3931071 v 18.69983 z"
     id="4"
     style="vector-effect:non-scaling-stroke;fill:#ffffff;fill-opacity:1;stroke:none;stroke-width:0.09989227mm" />
  <path
     inkscape:connector-curvature="0"
     d="M 67.257051,30.203354 V 2.2335193 h 9.270007 l 1.598278,21.0173357 v 4.075602 h 0.958963 V 23.250855 L 80.682577,2.2335193 h 9.270002 V 30.203354 H 85.157754 V 11.503524 L 85.637231,5.1104169 H 84.678268 L 82.600504,30.203354 H 74.689038 L 72.531369,5.1104169 h -0.958971 l 0.479485,6.3931071 v 18.69983 z"
     id="2"
     style="vector-effect:non-scaling-stroke;fill:#ffffff;fill-opacity:1;stroke:none;stroke-width:0.09989227mm" />
</svg>
